<?xml version="1.0"?>
<svg xmlns="http://www.w3.org/2000/svg" xmlns:xlink="http://www.w3.org/1999/xlink" version="1.1" id="Layer_1" x="0px" y="0px" viewBox="0 0 512 512" style="enable-background:new 0 0 512 512;" xml:space="preserve" width="512px" height="512px" class=""><g><circle style="fill:#FF4700" cx="180.966" cy="167.724" r="167.724" data-original="#F5DCB4" class="" data-old_color="#FF4F00"/><path style="fill:#FF9B00" d="M342.624,123.586h-11.895c-3.777,0-7.039-2.443-8.301-6.003  C299.788,53.71,235.149,9.714,161.698,18.857C93.805,27.309,39.362,82.618,31.844,150.621  c-10.009,90.54,60.607,167.172,149.121,167.172c8.582,0,16.962-0.799,25.132-2.229c5.337-0.935,10.178,3.266,10.178,8.685v7.403  c75.663-16.225,132.414-83.42,132.414-163.928C348.69,152.423,346.463,137.672,342.624,123.586z" data-original="#EBC9A0" class="" data-old_color="#FFAA00"/><circle style="fill:#FFFFFF;" cx="180.966" cy="167.724" r="132.414" data-original="#FFFFFF" class=""/><g>
	<circle style="fill:#EEF1F4" cx="180.966" cy="167.724" r="35.31" data-original="#E4EAF8" class="" data-old_color="#F0F3F6"/>
	<path style="fill:#EEF1F4" d="M428.138,141.241H251.586c-9.75,0-17.655,7.904-17.655,17.655v335.448   c0,9.75,7.905,17.655,17.655,17.655h229.517c9.75,0,17.655-7.905,17.655-17.655V211.862L428.138,141.241z" data-original="#E4EAF8" class="" data-old_color="#F0F3F6"/>
</g><path style="fill:#FF8C00" d="M428.138,141.241v52.966c0,9.75,7.905,17.655,17.655,17.655h52.966L428.138,141.241z" data-original="#D5DCED" class="" data-old_color="#FF9300"/><path style="fill:#929292" d="M454.621,344.276h-79.448c-4.879,0-8.828-3.953-8.828-8.828s3.948-8.828,8.828-8.828h79.448  c4.879,0,8.828,3.953,8.828,8.828S459.5,344.276,454.621,344.276z" data-original="#707487" class="" data-old_color="#929291"/><path style="fill:#F0B633" d="M436.966,379.586h-61.793c-4.879,0-8.828-3.953-8.828-8.828c0-4.875,3.948-8.828,8.828-8.828h61.793  c4.879,0,8.828,3.953,8.828,8.828C445.793,375.634,441.845,379.586,436.966,379.586z" data-original="#959CB5" class="" data-old_color="#F0B634"/><path style="fill:#12A10F" d="M304.552,379.586c-2.259,0-4.518-0.862-6.241-2.586l-26.483-26.483  c-3.448-3.448-3.448-9.035,0-12.483c3.448-3.448,9.035-3.448,12.483,0l20.241,20.243l29.069-29.069  c3.448-3.448,9.035-3.448,12.483,0s3.448,9.035,0,12.483l-35.31,35.31C309.069,378.724,306.81,379.586,304.552,379.586z" data-original="#464655" class="active-path" data-old_color="#11A00E"/><path style="fill:#929292" d="M454.621,256h-79.448c-4.879,0-8.828-3.953-8.828-8.828s3.948-8.828,8.828-8.828h79.448  c4.879,0,8.828,3.953,8.828,8.828S459.5,256,454.621,256z" data-original="#707487" class="" data-old_color="#929291"/><path style="fill:#F0B633" d="M436.966,291.31h-61.793c-4.879,0-8.828-3.953-8.828-8.828s3.948-8.828,8.828-8.828h61.793  c4.879,0,8.828,3.953,8.828,8.828S441.845,291.31,436.966,291.31z" data-original="#959CB5" class="" data-old_color="#F0B634"/><path style="fill:#12A10F" d="M304.552,291.31c-2.259,0-4.518-0.862-6.241-2.586l-26.483-26.483c-3.448-3.448-3.448-9.035,0-12.483  s9.035-3.448,12.483,0l20.241,20.243l29.069-29.069c3.448-3.448,9.035-3.448,12.483,0s3.448,9.035,0,12.483l-35.31,35.31  C309.069,290.449,306.81,291.31,304.552,291.31z" data-original="#464655" class="active-path" data-old_color="#11A00E"/><path style="fill:#929292" d="M454.621,432.552h-79.448c-4.879,0-8.828-3.953-8.828-8.828c0-4.875,3.948-8.828,8.828-8.828h79.448  c4.879,0,8.828,3.953,8.828,8.828C463.448,428.599,459.5,432.552,454.621,432.552z" data-original="#707487" class="" data-old_color="#929291"/><path style="fill:#F0B633" d="M436.966,467.862h-61.793c-4.879,0-8.828-3.953-8.828-8.828s3.948-8.828,8.828-8.828h61.793  c4.879,0,8.828,3.953,8.828,8.828S441.845,467.862,436.966,467.862z" data-original="#959CB5" class="" data-old_color="#F0B634"/><g>
	<path style="fill:#12A10F" d="M304.552,467.862c-2.259,0-4.518-0.862-6.241-2.586l-26.483-26.483   c-3.448-3.448-3.448-9.035,0-12.483s9.035-3.448,12.483,0l20.241,20.243l29.069-29.069c3.448-3.448,9.035-3.448,12.483,0   s3.448,9.035,0,12.483l-35.31,35.31C309.069,467,306.81,467.862,304.552,467.862z" data-original="#464655" class="active-path" data-old_color="#11A00E"/>
	<path style="fill:#12A10F" d="M180.966,176.552c-2.259,0-4.518-0.862-6.241-2.586l-70.621-70.621   c-3.448-3.448-3.448-9.035,0-12.483c3.448-3.448,9.035-3.448,12.483,0l64.378,64.381l73.207-73.207   c3.448-3.448,9.035-3.448,12.483,0c3.448,3.448,3.448,9.035,0,12.483l-79.448,79.448   C185.483,175.69,183.224,176.552,180.966,176.552z" data-original="#464655" class="active-path" data-old_color="#11A00E"/>
</g><g>
	<path style="fill:#929292" d="M392.828,203.034H278.069c-4.879,0-8.828-3.953-8.828-8.828s3.948-8.828,8.828-8.828h114.759   c4.879,0,8.828,3.953,8.828,8.828S397.707,203.034,392.828,203.034z" data-original="#707487" class="" data-old_color="#929291"/>
	<circle style="fill:#929292" cx="180.966" cy="167.724" r="17.655" data-original="#707487" class="" data-old_color="#929291"/>
</g><g>
	<path style="fill:#FF8C00" d="M85.992,102.702l-15.028-8.68c-3.272,4.874-6.111,10.042-8.723,15.345l14.923,8.619   c1.388,0.806,2.905,1.185,4.405,1.185c3.052,0,6.017-1.582,7.656-4.414C91.663,110.539,90.216,105.138,85.992,102.702z" data-original="#D5DCED" class="" data-old_color="#FF9300"/>
	<path style="fill:#FF8C00" d="M115.939,72.755c1.638,2.831,4.604,4.414,7.656,4.414c1.5,0,3.017-0.38,4.405-1.181   c4.224-2.44,5.673-7.84,3.233-12.061l-8.62-14.93c-5.305,2.613-10.476,5.453-15.351,8.727L115.939,72.755z" data-original="#D5DCED" class="" data-old_color="#FF9300"/>
</g><g>
	<path style="fill:#C7CFE2" d="M48.998,176.552h17.209c4.879,0,8.828-3.953,8.828-8.828s-3.948-8.828-8.828-8.828H48.998   c-0.194,2.931-0.446,5.847-0.446,8.828S48.803,173.621,48.998,176.552z" data-original="#C7CFE2" class=""/>
	<path style="fill:#C7CFE2" d="M180.966,35.31c-2.98,0-5.897,0.252-8.828,0.446v17.209c0,4.875,3.948,8.828,8.828,8.828   s8.828-3.953,8.828-8.828V35.756C186.862,35.562,183.946,35.31,180.966,35.31z" data-original="#C7CFE2" class=""/>
</g><g>
	<path style="fill:#FF8C00" d="M77.164,217.461l-14.923,8.619c2.612,5.303,5.451,10.472,8.723,15.345l15.028-8.68   c4.224-2.435,5.673-7.837,3.233-12.056C86.784,216.466,81.37,215.009,77.164,217.461z" data-original="#D5DCED" class="" data-old_color="#FF9300"/>
	<path style="fill:#FF8C00" d="M128,259.462c-4.215-2.444-9.621-0.995-12.061,3.233l-8.679,15.03   c4.875,3.273,10.046,6.114,15.351,8.727l8.62-14.93C133.673,267.302,132.224,261.901,128,259.462z" data-original="#D5DCED" class="" data-old_color="#FF9300"/>
</g><path style="fill:#C7CFE2" d="M180.966,273.655c-4.879,0-8.828,3.953-8.828,8.828v17.209c2.931,0.194,5.847,0.446,8.828,0.446  s5.897-0.252,8.828-0.446v-17.209C189.793,277.608,185.845,273.655,180.966,273.655z" data-original="#C7CFE2" class=""/><g>
	<path style="fill:#FF8C00" d="M239.318,48.998l-8.62,14.93c-2.44,4.22-0.991,9.621,3.233,12.061   c1.388,0.802,2.905,1.181,4.405,1.181c3.052,0,6.017-1.582,7.656-4.414l8.679-15.03C249.794,54.451,244.623,51.61,239.318,48.998z" data-original="#D5DCED" class="" data-old_color="#FF9300"/>
	<path style="fill:#FF8C00" d="M284.767,117.987l14.923-8.619c-2.612-5.303-5.451-10.472-8.723-15.345l-15.028,8.68   c-4.224,2.435-5.673,7.837-3.233,12.056c1.638,2.831,4.604,4.414,7.656,4.414C281.863,119.172,283.38,118.793,284.767,117.987z" data-original="#D5DCED" class="" data-old_color="#FF9300"/>
</g></g> </svg>
